<?xml version="1.0" encoding="iso-8859-1"?>
<!-- Generator: Adobe Illustrator 28.5.0, SVG Export Plug-In . SVG Version: 9.03 Build 54727)  -->
<svg version="1.1" id="&#x56FE;&#x5C42;_1" xmlns="http://www.w3.org/2000/svg" xmlns:xlink="http://www.w3.org/1999/xlink" x="0px"
	 y="0px" viewBox="0 0 532.076 154.869" style="enable-background:new 0 0 532.076 154.869;" xml:space="preserve">
<g>
	<g>
		<path style="fill:#E2E2E2;" d="M284.139,69.037c-5.009,0.451-9.314,4.517-11.246,9.966l22.491-2.024
			C293.453,71.877,289.148,68.586,284.139,69.037z"/>
		<path style="fill:#E2E2E2;" d="M205.865,48.894l-8.723,0.785v48.849l8.723-0.785c13.489-1.214,24.425-13.133,24.425-26.622l0,0
			C230.289,57.632,219.354,47.68,205.865,48.894z"/>
		<path style="fill:#E2E2E2;" d="M426.732,57c-5.058,0.455-9.158,4.785-9.158,9.673v7.08c0,4.887,4.1,8.48,9.158,8.025
			c5.058-0.455,9.158-4.786,9.158-9.673v-7.082C435.889,60.137,431.789,56.545,426.732,57z"/>
		<path style="fill:#E2E2E2;" d="M62.505,61.788l-19.939,1.733V85.05l19.939-1.733c2.966-0.267,5.67-1.714,7.607-3.842
			c1.954-2.113,3.157-4.925,3.157-7.891C73.27,65.652,68.454,61.253,62.505,61.788z"/>
		<path style="fill:#E2E2E2;" d="M276.679,23.298V4.229L0,29.03v125.612l255.396-23.072v19.361l276.679-24.801V0.226L276.679,23.298
			z M94.205,126.976l-24.425,2.198l-12.02-26.239l-15.194,1.306v27.321l-21.283,1.799V46.306L64.25,42.44
			c8.269-0.744,15.754,1.932,21.18,6.87c5.426,4.937,8.775,12.12,8.775,20.39c0,10.695-5.6,20.584-14.044,26.63L94.205,126.976z
			 M169.223,52.186l-47.105,4.238v14.829l41.871-3.767v19.191l-41.871,3.767v14.829l47.105-4.238v19.191l-68.04,6.122V39.117
			l68.04-6.122V52.186z M251.225,69.237c0,24.088-19.527,45.372-43.615,47.54l-31.403,2.825V32.372l31.403-2.825
			C231.697,27.379,251.225,45.149,251.225,69.237L251.225,69.237z M312.245,88.024l-39.352,3.541
			c1.932,5.102,6.237,8.393,11.246,7.943c2.602-0.234,5.009-1.438,6.99-3.303l19.299-1.736c-4.42,11.487-14.52,20.148-26.289,21.207
			c-15.846,1.426-28.679-11.47-28.679-28.823c0-17.334,12.834-32.558,28.679-33.983s28.679,11.488,28.679,28.823
			C312.818,83.844,312.621,85.962,312.245,88.024z M341.903,73.846v0.012c14.249-1.152,25.732,4.252,25.732,15.991
			c0,11.112-13.461,19.53-27.914,20.83c-12.862,1.157-24.32-6.079-25.732-15.827l17.479-1.573c1.141,1.816,4.384,2.919,8.254,2.571
			c4.817-0.433,10.117-2.431,10.117-5.708c0-3.384-3.555-4.478-8.373-4.045v-0.012c-14.25,1.152-25.732-4.252-25.732-15.991
			c0-11.111,11.716-19.373,26.169-20.673c12.862-1.157,24.319,6.079,25.732,15.827l-17.479,1.573
			c-1.142-1.816-4.385-2.919-8.254-2.571c-4.818,0.433-8.373,2.275-8.373,5.551C333.531,73.185,337.086,74.279,341.903,73.846z
			 M392.18,105.087l-18.557,1.67v-55.97l18.557-1.67V105.087z M382.858,43.318c-5.462,0.491-9.89-3.538-9.89-9
			c0-5.462,4.428-10.288,9.89-10.78c5.462-0.491,9.89,3.538,9.89,9C392.748,38.001,388.32,42.826,382.858,43.318z M454.206,91.696
			L454.206,91.696c0,17.106-14.35,32.265-32.054,33.857c-9.169,0.825-17.417-2.173-23.259-7.611l12.892-11.969
			c2.519,2.576,6.225,4.023,10.367,3.65c7.588-0.683,13.738-7.179,13.738-14.51v-2.685c-3.83,3.129-8.576,5.227-13.738,5.691
			c-12.644,1.138-22.896-7.846-22.896-20.064V65.667c0-12.219,10.251-23.046,22.896-24.184c5.162-0.464,9.908,0.779,13.738,3.219
			v-3.297l18.316-1.648V91.696z M512.885,94.226l-17.446,1.57V60.032c0-4.818-3.905-8.372-8.723-7.939
			c-4.817,0.433-8.722,4.689-8.723,9.506v35.766l-6.978,0.628l-10.468,0.942V39.887l17.446-1.57v4.709
			c3.893-3.97,9.095-6.668,14.829-7.184l0,0c12.044-1.084,20.063,7.958,20.063,20.003V94.226z"/>
	</g>
</g>
</svg>
